<svg xmlns="http://www.w3.org/2000/svg" xmlns:xlink="http://www.w3.org/1999/xlink" version="1.1" x="0px" y="0px" viewBox="0 0 128 160" enable-background="new 0 0 128 128" xml:space="preserve"><g><rect x="51.411" y="91.803" transform="matrix(-0.7048 0.7094 -0.7094 -0.7048 158.3544 123.8325)" width="4" height="6.123"/><rect x="36.229" y="73.603" transform="matrix(-0.7071 0.7071 -0.7071 -0.7071 120.5159 101.2867)" width="6.103" height="4"/><rect x="26.027" y="87.578" transform="matrix(0.707 0.7072 -0.7072 0.707 71.8672 5.6802)" width="6.102" height="4"/><path d="M31.836,96.309c-3.041,0-5.515,2.474-5.515,5.515s2.474,5.516,5.515,5.516s5.515-2.475,5.515-5.516   S34.877,96.309,31.836,96.309z M31.836,103.339c-0.835,0-1.515-0.68-1.515-1.516c0-0.835,0.68-1.515,1.515-1.515   s1.515,0.68,1.515,1.515C33.351,102.659,32.671,103.339,31.836,103.339z"/><path d="M62.643,92.021c-3.041,0-5.515,2.474-5.515,5.515s2.474,5.516,5.515,5.516s5.516-2.475,5.516-5.516   S65.684,92.021,62.643,92.021z M62.643,99.052c-0.835,0-1.515-0.68-1.515-1.516c0-0.835,0.68-1.515,1.515-1.515   c0.836,0,1.516,0.68,1.516,1.515C64.158,98.372,63.479,99.052,62.643,99.052z"/><path d="M39.238,86.248c0,3.041,2.474,5.516,5.515,5.516s5.516-2.475,5.516-5.516s-2.475-5.515-5.516-5.515   S39.238,83.207,39.238,86.248z M44.753,84.733c0.836,0,1.516,0.68,1.516,1.515c0,0.836-0.68,1.516-1.516,1.516   c-0.835,0-1.515-0.68-1.515-1.516C43.238,85.413,43.918,84.733,44.753,84.733z"/><path d="M62.128,76.273c3.025,0,5.486-2.474,5.486-5.515s-2.461-5.516-5.486-5.516c-3.041,0-5.515,2.475-5.515,5.516   S59.087,76.273,62.128,76.273z M62.128,69.243c0.819,0,1.486,0.68,1.486,1.516c0,0.835-0.667,1.515-1.486,1.515   c-0.835,0-1.515-0.68-1.515-1.515C60.613,69.923,61.293,69.243,62.128,69.243z"/><path d="M31.179,65.1c3.041,0,5.515-2.475,5.515-5.516s-2.474-5.515-5.515-5.515c-3.025,0-5.486,2.474-5.486,5.515   S28.153,65.1,31.179,65.1z M31.179,58.069c0.835,0,1.515,0.68,1.515,1.515c0,0.836-0.68,1.516-1.515,1.516   c-0.819,0-1.486-0.68-1.486-1.516C29.692,58.749,30.359,58.069,31.179,58.069z"/><path d="M122.455,35.778c0-12.194-18.126-21.747-41.266-21.747c-5.068,0-22.479,0.655-33.712,9.08   c-0.813,0.603-1.583,1.247-2.286,1.916L11.937,52.878c-0.023,0.02-0.051,0.038-0.074,0.058l0.002,0.003l-0.025,0.021   c-4.117,3.422-6.294,7.462-6.294,11.684c0,5.007,3.123,9.795,8.827,13.577l-1.937,35.749h67.311l35.729-30.003l-1.849-34.612   C119.331,45.556,122.455,40.769,122.455,35.778z M17.475,75.453c-5.114-3.121-7.93-6.961-7.93-10.811   c0-3.782,2.638-6.769,4.856-8.612l0.099-0.082c6.722-5.585,19.077-9.053,32.282-9.053c20.185,0,37.237,8.127,37.237,17.747   c0,3.851-2.816,7.689-7.93,10.811l-1.02,0.622l1.836,33.894H16.658l1.836-33.894L17.475,75.453z M110.521,46.591l-1.015,0.623   l0.011,0.191l-19.582,16.42l2.57,3.064l17.278-14.488l1.591,29.785l-30.577,25.676L79.192,78.22   c5.703-3.782,8.827-8.569,8.827-13.577c0-12.194-18.114-21.747-41.237-21.747c-7.091,0-13.86,0.918-19.804,2.602l20.83-17.444   l0.099-0.088c0.596-0.57,1.253-1.121,1.961-1.646c10.252-7.689,26.565-8.287,31.321-8.287c20.2,0,37.266,8.127,37.266,17.747   C118.455,39.613,115.638,43.453,110.521,46.591z"/></g><text x="0" y="143" fill="#000000" font-size="5px" font-weight="bold" font-family="'Helvetica Neue', Helvetica, Arial-Unicode, Arial, Sans-serif">Created by Ongycon</text><text x="0" y="148" fill="#000000" font-size="5px" font-weight="bold" font-family="'Helvetica Neue', Helvetica, Arial-Unicode, Arial, Sans-serif">from the Noun Project</text></svg>